<svg xmlns="http://www.w3.org/2000/svg" xmlns:xlink="http://www.w3.org/1999/xlink" width="1640" zoomAndPan="magnify" viewBox="0 0 1230 693.000001" height="924" preserveAspectRatio="xMidYMid meet" version="1.0"><defs><clipPath id="9d77f4e435"><path d="M 0.886719 0 L 1229.113281 0 L 1229.113281 692 L 0.886719 692 Z M 0.886719 0 " clip-rule="nonzero"/></clipPath><clipPath id="21154543cd"><path d="M 33.484375 24 L 419.929688 24 L 419.929688 39 L 33.484375 39 Z M 33.484375 24 " clip-rule="nonzero"/></clipPath><clipPath id="d28c0e7f32"><path d="M 33.484375 24 L 48 24 L 48 478.652344 L 33.484375 478.652344 Z M 33.484375 24 " clip-rule="nonzero"/></clipPath></defs><g clip-path="url(#9d77f4e435)"><path fill="#ffffff" d="M 0.886719 0 L 1229.113281 0 L 1229.113281 692 L 0.886719 692 Z M 0.886719 0 " fill-opacity="1" fill-rule="nonzero"/><path fill="#ffffff" d="M 0.886719 0 L 1229.113281 0 L 1229.113281 692 L 0.886719 692 Z M 0.886719 0 " fill-opacity="1" fill-rule="nonzero"/></g><g clip-path="url(#21154543cd)"><path fill="#a1a3a3" d="M 40.84375 24.308594 C 40.84375 24.308594 420.152344 31.425781 420.152344 31.425781 C 420.152344 31.425781 40.84375 38.539062 40.84375 38.539062 C 36.914062 38.621094 33.667969 35.488281 33.589844 31.558594 C 33.507812 27.539062 36.824219 24.230469 40.84375 24.308594 Z M 40.84375 24.308594 " fill-opacity="1" fill-rule="nonzero"/></g><g clip-path="url(#d28c0e7f32)"><path fill="#a1a3a3" d="M 47.960938 31.425781 C 47.960938 31.425781 40.84375 478.257812 40.84375 478.257812 C 40.84375 478.257812 33.726562 31.425781 33.726562 31.425781 C 33.96875 21.882812 47.675781 21.78125 47.960938 31.425781 Z M 47.960938 31.425781 " fill-opacity="1" fill-rule="nonzero"/></g></svg>